<svg id="Layer_1" xmlns="http://www.w3.org/2000/svg" viewBox="0 0 50 50"><style>.st0{fill:#fff}</style><title>clipboard.svg</title><desc>Created using Figma 0.90</desc><path class="st0" d="M31.2 29.1l-.6 3.3 2.8-1.6 2.9 1.6-.5-3.3 2.3-2.3-3.2-.6-1.5-3-1.4 3-3.2.5 2.4 2.4z"/><path class="st0" d="M46.5 26.9c.7-.8.6-2.3.3-2.9-.1-.2-.3-.4-.6-.6-.2-.4-.5-1.2-.5-1.4 0-.6-.4-1.2-1.2-1.8-.1-.7-.2-3.2-.3-4.4-.1-.7-.6-1.3-1.4-1.3-.4 0-1-.2-1.4-.4-.4-.5-1.3-1.4-2.2-1.4-.4 0-.8.1-1 .4-.5.5-1.5.7-2 .7H36c-.2-.2-.7-.4-1.3-.4-.3 0-.6.1-.9.2-.1 0-.4.1-.8.1-.6 0-1.2-.1-1.5-.1v-.1c-.2-.3-.8-.7-1.5-.7-.4 0-.7.1-1 .2-.4.2-.6.2-.7 0-.4-.8-1.2-1.6-2.4-1.4h-.5l-.2-6.4c.2-.6-.3-1.2-1.1-1.2h-9c-.8 0-1.4.6-1.4 1.4v15.3H4.4c-.5 0-.9.2-1.2.7-.2.4-.3.9 0 1.3.2.4.4.7.8.9.4.3.9.8 1.4 1.4.6.7 1.4 1.5 2.3 2.3C9 28.4 9 29.5 9.1 30.6v.3c.1 1.8 4.5 3.6 6 3.6h.2c1.2-.1 1.7-1.4 2.1-2.3.2-.3.3-.8.4-.9h.3c.6 0 1.6.3 1.9.5h.1s1.8.5 2.8 3.6c.8 2.4 1.9 3.2 2.6 3.7.4.3.4.4.4.4 0 1.5.5 2.6 1.5 4 .8 1.2 3 1.7 4.9 2 .7.2 1.3.2 1.7.4.3.1.6.2.9.2 1.1 0 1.7-.9 1.7-1.7 0-.1 0-.3-.1-.4 0 0-.9-1.8-1.2-3.9-.2-1.7 1.7-3.5 1.8-3.7 1.9-1.1 5.1-3.2 5.6-4.4.2-.4 1-.5 1.7-.6.6-.1 1.2-.2 1.6-.5 1.2-.7.9-2 .6-2.8-.2-.5-.2-1.1-.1-1.2zm-1.1-1c-.8.8-.4 2.4-.3 2.7 0 0 0 .1.1.1.1.3.3.8 0 .9-.2.1-.7.2-1.1.3-1.1.1-2.3.4-2.9 1.5-.3.6-2.4 2.2-5.1 3.7-.1 0-.2.1-.2.2-.5.4-2.7 2.6-2.3 5 .3 1.9 1 3.6 1.2 4.2v.1s-.1 0-.5-.1c-.6-.2-1.2-.3-1.9-.5-1.4-.3-3.5-.7-4-1.4-.8-1.2-1.3-2.1-1.2-3.1 0-.9-.6-1.4-1.1-1.7-.6-.4-1.4-1-2-2.9-1.2-3.6-3.4-4.4-3.8-4.6-.3-.1-1.5-.6-2.4-.6-.5 0-.9.1-1.2.4-.4.4-.7.9-.9 1.5-.2.6-.6 1.3-.9 1.3-1.3 0-4.3-1.6-4.5-2.2v-.2c0-1.2-.1-2.8-2-4.5-.9-.8-1.6-1.6-2.2-2.2l-1.5-1.5-.1-.2h9.3c.8 0 1.3-.6 1.3-1.4V5.4H24l.3 6.4c0 .4.2.8.5 1 .4.3 1 .4 1.7.3.5 0 .7.5.8.6 0 .1.2.3.2.4.2.2.7.6 1.4.6.4 0 .8-.1 1.1-.2.4-.2.6-.1.9.2.2.1.4.3.7.4.3 0 1.1.2 1.9.2.5 0 .9-.1 1.3-.2.3-.1.5 0 .9.1.1.1.2.1.2.2.2.1.5.1.8.1.9 0 2.2-.3 3-1.1.1 0 .6.3 1 .8.1.2.3.3.5.4.4.2 1.2.5 1.9.5.1 1.3.2 3.8.2 4.3 0 .4.3.8.6 1.1.4.3.6.5.6.6 0 .7.5 2.1.9 2.6.1.1.1.2.2.2-.1.2-.1.8-.2 1z"/></svg>