<svg id="Layer_1" xmlns="http://www.w3.org/2000/svg" viewBox="0 0 50 50"><style>.st0{fill:#fff}</style><title>clipboard.svg</title><desc>Created using Figma 0.90</desc><path class="st0" d="M31.2 32.8v-6.1c0-.9-.8-1.7-1.7-1.7s-1.7.8-1.7 1.7v.6h-1.1v-.6c0-.9-.8-1.7-1.7-1.7s-1.7.8-1.7 1.7v.6h-1.1v-.6c0-.9-.8-1.7-1.7-1.7s-1.7.8-1.7 1.7v6.1H20v-2.2h1.1v2.2h3.4v-2.2h1.1v2.2H29v-2.2h1v2.2h1.2zm-10.1-3.3H20v-2.8c0-.3.2-.6.6-.6s.6.2.6.6v2.8zm4.5 0h-1.1v-2.8c0-.3.2-.6.6-.6s.6.2.6.6v2.8zm3.3 0v-2.8c0-.3.2-.6.6-.6s.6.2.6.6v2.8h-1.2zM13.2 31.7h1.1v1.1h1.1v-1.1h1.1v1.1h1.1v-5.6H12v5.6h1.1v-1.1zm2.3-2.8c0-.3.2-.6.6-.6s.6.2.6.6v1.7h-1.1v-1.7zm-2.3 0c0-.3.2-.6.6-.6s.6.2.6.6v1.7h-1.1v-1.7zM37.9 32.8v-5.6h-5.6v5.6h1.1v-1.1h1.1v1.1h1.1v-1.1h1.1v1.1h1.2zm-3.4-2.2h-1.1v-1.7c0-.3.2-.6.6-.6s.6.2.6.6v1.7zm1.1 0v-1.7c0-.3.2-.6.6-.6s.6.2.6.6v1.7h-1.2zM21.1 8.3v2.2H20v1.2c.9.2 1.6.7 1.9 1.4.7-1 1.9-1.6 3.1-1.6 1.3 0 2.4.6 3.1 1.6.3-.8 1.1-1.3 1.9-1.4v-1.2h-1.1V8.3H30l1.1-1.1H18.8L20 8.3h1.1zm5.6 0h1.1v2.2h-1.1V8.3zm-2.3 0h1.1v2.2h-1.1V8.3zm-2.2 0h1.1v2.2h-1.1V8.3zM22.2 4.4c0-.3.2-.6.6-.6s.6.2.6.6v1.7h1.1V4.4c0-.3.2-.6.6-.6s.6.2.6.6v1.7h1.1V4.4c0-.3.2-.6.6-.6s.6.2.6.6v1.7h2v-.6c0-2.2-1.5-4-3.4-4.7V.5h-3.4v.3c-1.8.7-3.2 2.6-3.2 4.7v.6h2.2V4.4z"/><path class="st0" d="M17.8 26.1c.3-1.5 1.7-2.5 3.2-2.2.4.1.8.3 1.1.5.2.1.4.3.6.6.1-.2.3-.4.6-.6.5-.4 1.1-.6 1.7-.6.6 0 1.2.2 1.7.6.2.1.4.3.6.6.1-.2.3-.4.6-.6 1.2-.9 2.9-.7 3.9.5.3.3.4.7.5 1.1H38v-3.3c0-2.1-.9-3.9-2.1-4.3l-.7-1.2-.7 1.2c-1.2.4-2.1 2.2-2.1 4.3v-4.5l1.1-1.1h1.1l1.1-1.1h-3.4v-1.7c0-.9-.8-1.7-1.7-1.7s-1.7.8-1.7 1.7V16h-1.1v-.6c0-1.6-1.2-2.8-2.8-2.8s-2.8 1.2-2.8 2.8v.6h-1.1v-1.7c0-.9-.8-1.7-1.7-1.7s-1.7.8-1.7 1.7V16h-3.4l1.1 1.1h1.1l1.1 1.1v4.5c0-2.1-.9-3.9-2.1-4.3l-.7-1.2-.7 1.2c-1.2.4-2.1 2.2-2.1 4.3V26l5.8.1zm17.8-2.8c0-.3.2-.6.6-.6s.6.2.6.6V25h-1.1v-1.7zm-2.2 0c0-.3.2-.6.6-.6s.6.2.6.6V25h-1.1v-1.7zM30 14.4c0-.3.2-.6.6-.6s.6.2.6.6v1.7H30v-1.7zm0 2.8h1.1v2.2H30v-2.2zm0 3.3h1.1v2.2H30v-2.2zm-2.2-3.3h1.1v5.6h-1.1v-5.6zm-2.2 5.6h-1.1v-2.2h1.1v2.2zm0-3.4h-1.1v-2.2h1.1v2.2zm-2.3-3.9c0-.9.8-1.7 1.7-1.7s1.7.8 1.7 1.7v.6h-1.1v-.6c0-.3-.2-.6-.6-.6s-.6.2-.6.6v.6h-1.1v-.6zm-2.2 1.7h1.1v5.6h-1.1v-5.6zm-2.3-2.8c0-.3.2-.6.6-.6s.6.2.6.6v1.7h-1.1v-1.7zm0 2.8H20v2.2h-1.1v-2.2zm0 3.3H20v2.2h-1.1v-2.2zM14.4 25h-1.1v-1.7c0-.3.2-.6.6-.6s.6.2.6.6V25zm2.2 0h-1.1v-1.7c0-.3.2-.6.6-.6s.6.2.6.6V25zM11 33.9l1.1 1.1h1.1l1.1 1.1v1.1h1.1v12.2h1.1v-1.1h1.1v-2.2h-1.1v-2.2h1.1v-2.2h-1.1v-2.2h1.1V35h1.1v14.5H20v-1.1h1.1v1.1h1.1V35h1.1v14.5h1.1v-1.1h1.1v1.1h1.1V35h1.1v14.5h1.1v-1.1H30v1.1h1.1V35h1.1v4.5h1.1v2.2h-1.1v2.2h1.1v2.2h-1.1v2.2h1.1v1.1h1.1V37.2h1.1v-1.1l1.1-1.1h1.1l1.1-1.1H11zm10.1 12.3H20V44h1.1v2.2zm0-4.5H20v-2.2h1.1v2.2zm0-4.5H20v-1.7c0-.3.2-.6.6-.6s.6.2.6.6v1.7zm4.5 9h-1.1V44h1.1v2.2zm0-4.5h-1.1v-2.2h1.1v2.2zm0-4.5h-1.1v-1.7c0-.3.2-.6.6-.6s.6.2.6.6v1.7zm4.4 9h-1.1V44H30v2.2zm0-4.5h-1.1v-2.2H30v2.2zm0-4.5h-1.1v-1.7c0-.3.2-.6.6-.6s.6.2.6.6v1.7z"/></svg>