<svg id="Layer_1" xmlns:figma="http://www.figma.com/figma/ns" xmlns="http://www.w3.org/2000/svg" viewBox="0 0 50 50"><style>.st0{fill:#fff}</style><title>clipboard.svg</title><desc>Created using Figma 0.90</desc><g figma:type="vector"><path id="a" class="st0" d="M46.7 39.9c-.8-.7-1.8-1.2-2.8-1.5V29c.8.1 1.5.2 2.3.3v-1.8c-5.7-.5-11-2.3-15.2-5.2v-9.2c2.8 6 8.3 10.9 15.2 13.7v-1.9c-8-3.4-13.8-9.8-15.2-17.4V4.4c0-.5-.4-.9-.9-.9h-2c-.5 0-.9.4-.9.9v3.1h-6.7c-.2-.9-.3-1.8-.3-2.8v-.3c0-.5-.4-.9-.9-.9h-3.7c-.5 0-.9.4-.9.9v.1c-.2 7.3-4.5 13.8-11 18.1v2c1.3-.8 2.5-1.7 3.7-2.6v12.9c-1.5.6-3 1.5-4.1 2.7-.3.3-.4.9 0 1.2.3.3.9.3 1.2 0 2-2 4.8-3.1 7.6-3 4.1 0 7.9 2.3 9.7 6-1.2 1-2.1 2.2-2.7 3.6-.2.4 0 1 .5 1.1.1 0 .2.1.3.1.4 0 .7-.2.8-.5 1.3-2.9 4.2-4.8 7.4-4.8 2.7 0 5.2 1.3 6.7 3.6.3.4.8.5 1.2.2.4-.3.5-.8.3-1.2l-.9-1.2c1.3-1.9 3.4-3 5.7-3 1.6 0 3.2.6 4.5 1.6.4.3.9.3 1.2-.1.3-.4.3-1-.1-1.3zM35.8 26.8v12.8c-.7.5-1.2 1.1-1.7 1.8-.9-.7-2-1.2-3.1-1.6V24.4c1.6 1 3.2 1.8 4.8 2.4zM20.2 12.4c.8 1.9 1.8 3.6 3.1 5.2h-3.1v-5.2zm-1.8 23.3c-.6-.4-1.3-.7-1.9-.9V5.2h1.9v30.5zm1.8-14.3h6.6c.7.6 1.4 1.1 2.1 1.7-.1 0-.2.1-.3.1h-1.4v8.9h-7V21.4zm7-10.2h1.4c.5 0 .9.4.9.9s-.4.9-.9.9h-1.4v4.8h-1.6c-1.7-2-3.1-4.1-4-6.5 0-.1 5.6-.1 5.6-.1zm-18 23.1v-14c2.4-2.3 4.3-5 5.6-8v21.9c-.9-.1-1.8-.2-2.7-.2-1 0-2 .1-2.9.3zm11 2.6v-1.2h8.4c.5 0 .9.4.9.9s-.4.9-.9.9h-1.4v2c-1.4.1-2.8.6-4 1.2-.7-1.4-1.7-2.7-3-3.8zm17.4 1.7V27.5c1.5.5 3 .9 4.5 1.2V38c-.3 0-.7-.1-1.1-.1-1.1 0-2.3.3-3.4.7z"/></g></svg>