<svg id="Layer_1" xmlns="http://www.w3.org/2000/svg" xmlns:xlink="http://www.w3.org/1999/xlink" viewBox="0 0 640 253"><style>.st0{fill:#616161}.st1{fill:none;stroke:#616161;stroke-width:4.3449;stroke-miterlimit:10}.st2{fill-rule:evenodd;clip-rule:evenodd;fill:#616161}.st3{clip-path:url(#XMLID_2_)}.st4,.st5{fill:#616161;stroke:#e9232e;stroke-width:4.659521e-02;stroke-miterlimit:10}.st5{stroke:#3471c0}</style><path class="st0" d="M260.4 34.7c-16.7 1.5-37.1 16.6-49.1 36.5s-13.7 36.9-13.7 36.9 1.7-17 13.7-36.9c12.1-19.8 32.5-35 49.1-36.5z"/><path class="st0" d="M260.4 34.7c-16.6 1.5-37 16-49 36-12 19.9-13.7 36.3-13.7 36.3h45s-8.6-38.7 19.9-54.6c6.2-3 26-14 58.4 9.9 1-.8 2-1.4 2-1.4s-29.7-29.5-62.6-26.2zm31.3-.6c-.5-.3-2-.9-5.6-2l-.2 3.8c2 .7 3.7 1.3 5.6 2.1l.2-3.9z"/><path class="st0" d="M285.8 53.7c1.9.1 3.8.3 5.6.7l.2-3.5c-2-.4-3.8-.7-5.6-.8l-.2 3.6zM265 32h.6l-1.1-3.4c-1.8 0-3.6.2-5.5.4l1.1 3.3c1.6-.1 3.2-.3 4.9-.3zm2.7 21.2l1.3 4c1.7-.8 3.3-1.5 5-2l-1.2-3.8c-2 .6-3.7 1.3-5.1 1.8zm-25.9-14.9l-2.5-4c-1.4.8-2.9 1.5-4.4 2.4l2.6 4c1.4-.8 2.8-1.7 4.3-2.4zm11.7 25.6l2.7 4.1c.9-1.4 2.1-2.7 3.4-4l-2.5-3.9c-1.4 1.2-2.6 2.5-3.6 3.8zM246.9 76c-.8 2.1-1.2 4.3-1.7 6.3l4.6 3.7c.2-2.2.7-4.4 1.2-6.7l-4.1-3.3zm-26.7-20.8l-4-3.5c-1.5 1.4-2.9 2.8-4.2 4.3l4.4 3.8c1.2-1.7 2.5-3.2 3.8-4.6zM203 80.7l-6.6-2.4c-1.1 2.4-2.3 5.3-2.8 6.9l6.6 2.4c.7-2 1.9-4.8 2.8-6.9zm41.4 16c.1 3 .4 5.5.7 7.2l6.9 2.4c-.5-2.2-1-4.7-1.4-7.4l-6.2-2.2z"/><circle class="st0" cx="430.7" cy="68.4" r="9.1"/><path class="st1" d="M430.7 50c12.2 0 23.5 1.8 32.1 4.7 10.3 3.6 16.6 8.9 16.6 13.8 0 5.1-6.7 10.8-17.8 14.4-8.4 2.8-19.3 4.2-30.9 4.2-11.9 0-23.1-1.4-31.6-4.3-10.7-3.7-17.1-9.4-17.1-14.4 0-4.8 6-10.2 16.2-13.7 8.6-3 20.2-4.7 32.5-4.7z"/><path class="st1" d="M414.6 59.2c6.1-10.6 13.3-19.5 20.1-25.4 8.2-7.2 16-9.9 20.2-7.5 4.4 2.5 6 11.2 3.6 22.6-1.8 8.6-6 18.9-11.8 28.9-5.9 10.3-12.7 19.3-19.4 25.2-8.5 7.4-16.7 10.1-21 7.6-4.2-2.4-5.8-10.3-3.8-20.9 1.7-8.9 6-19.8 12.1-30.5z"/><path class="st1" d="M414.6 77.8c-6.1-10.6-10.3-21.2-12-30.1-2.1-10.7-.6-18.8 3.6-21.3 4.4-2.5 12.7.4 21.4 8.1 6.6 5.9 13.3 14.6 19.1 24.7 6 10.3 10.4 20.7 12.1 29.4 2.2 11.1.4 19.5-3.9 22-4.2 2.4-11.8-.2-19.9-7.2-6.8-5.8-14.2-14.9-20.4-25.6z"/><path class="st0" d="M89.6 55.1c0 .1-.1.4-.1.5l-1.2 5.7 1.3-6v-.2m-36.2 3.7l-.6 2.4.6-2.4"/><path class="st0" d="M14.9 51.9l50.7 53.3-24.3-53.3H14.9zm33.1 0l23.2 52.8 23.2-52.8H48zm77.9 0h-24.8L77 105.2l48.9-53.3zm-75-6.1h41.7L71.8 24.1 50.9 45.8zm56.7-23.6H77.2L98 43.9l9.6-21.7zm-72.7 0l9.9 22.4 21.5-22.4H34.9zM126 45.8l-13.3-20-8.8 20H126zm-109.2 0h21.8L30 26.2 16.8 45.8zm12.1-27.1h84.8l21 31.5-63.8 68.2L7 51l21.9-32.3z"/><path class="st0" d="M14.9 51.9l50.7 53.3-24.3-53.3H14.9zm33.1 0l23.2 52.8 23.2-52.8H48zm77.9 0h-24.8L77 105.2l48.9-53.3zm-75-6.1h41.7L71.8 24.1 50.9 45.8zm56.7-23.6H77.2L98 43.9l9.6-21.7zm-72.7 0l9.9 22.4 21.5-22.4H34.9zM126 45.8l-13.3-20-8.8 20H126zm-109.2 0h21.8L30 26.2 16.8 45.8zm12.1-27.1h84.8l21 31.5-63.8 68.2L7 51l21.9-32.3z"/><path class="st2" d="M163.7 194.4c0-.9-.5-1.8-1.3-2.2l-21.1-12.1c-.4-.2-.8-.3-1.2-.3h-.2c-.4 0-.8.1-1.2.3l-21.1 12.1c-.8.5-1.3 1.3-1.3 2.2V227c0 .5.2.9.6 1.1.4.2.9.2 1.3 0L131 221c.8-.5 1.3-1.3 1.3-2.2v-15.2c0-.9.5-1.7 1.3-2.2l5.3-3.1c.4-.2.8-.3 1.3-.3.4 0 .9.1 1.3.3l5.3 3.1c.8.5 1.3 1.3 1.3 2.2v15.2c0 .9.5 1.7 1.3 2.2l12.5 7.2c.4.2.9.2 1.3 0s.6-.6.6-1.1l-.1-32.7zM265 149.6c-.4-.2-.9-.2-1.3 0s-.6.6-.6 1.1V183c0 .3-.2.6-.4.8-.3.2-.6.2-.9 0l-5.3-3c-.8-.5-1.8-.5-2.5 0L232.9 193c-.8.5-1.3 1.3-1.3 2.2v24.3c0 .9.5 1.7 1.3 2.2l21.1 12.2c.8.5 1.8.5 2.5 0l21.1-12.2c.8-.5 1.3-1.3 1.3-2.2v-60.6c0-.9-.5-1.8-1.3-2.2l-12.6-7.1zm-2 61.8c0 .2-.1.4-.3.5l-7.2 4.2c-.2.1-.4.1-.6 0l-7.2-4.2c-.2-.1-.3-.3-.3-.5V203c0-.2.1-.4.3-.6l7.2-4.2c.2-.1.4-.1.6 0l7.2 4.2c.2.1.3.3.3.6v8.4zm72.1-8.6c.8-.5 1.3-1.3 1.3-2.2v-5.9c0-.9-.5-1.7-1.3-2.2l-20.9-12.1c-.8-.5-1.8-.5-2.5 0l-21.1 12.2c-.8.5-1.3 1.3-1.3 2.2V219c0 .9.5 1.8 1.3 2.2l20.9 11.9c.8.4 1.7.4 2.5 0l12.7-7c.4-.2.7-.6.7-1.1 0-.5-.2-.9-.6-1.1l-21.2-12.2c-.4-.2-.6-.6-.6-1.1V203c0-.5.2-.9.6-1.1l6.6-3.8c.4-.2.9-.2 1.3 0l6.6 3.8c.4.2.6.6.6 1.1v6c0 .5.2.9.6 1.1.4.2.9.2 1.3 0l12.5-7.3z"/><path class="st2" d="M312.6 201.7c.2-.1.3-.1.5 0l4 2.3c.2.1.2.2.2.4v4.7c0 .2-.1.3-.2.4l-4 2.3c-.2.1-.3.1-.5 0l-4-2.3c-.2-.1-.2-.2-.2-.4v-4.7c0-.2.1-.3.2-.4l4-2.3z"/><path id="XMLID_67_" class="st2" d="M196.4 180.5c.8-.5 1.7-.5 2.5 0l20.9 12.1c.8.5 1.3 1.3 1.3 2.2v24.1c0 .9-.5 1.7-1.3 2.2l-20.9 12.1c-.8.5-1.7.5-2.5 0l-20.9-12.1c-.8-.5-1.3-1.3-1.3-2.2v-24.1c0-.9.5-1.7 1.3-2.2l20.9-12.1z"/><defs><path id="XMLID_64_" d="M198.9 180.5c-.8-.5-1.7-.5-2.5 0l-20.9 12.1c-.8.5-1.3 1.3-1.3 2.2v24.1c0 .9.5 1.7 1.3 2.2l20.9 12.1c.8.5 1.7.5 2.5 0l20.9-12.1c.8-.5 1.3-1.3 1.3-2.2v-24.1c0-.9-.5-1.7-1.3-2.2l-20.9-12.1z"/></defs><use xlink:href="#XMLID_64_" overflow="visible" fill-rule="evenodd" clip-rule="evenodd" fill="#616161"/><clipPath id="XMLID_2_"><use xlink:href="#XMLID_64_" overflow="visible"/></clipPath><path class="st3 st0" d="M196.4 180.5l-21 12.1c-.8.5-1.4 1.3-1.4 2.2v24.1c0 .6.3 1.1.7 1.6l23.5-40.2c-.6-.2-1.3-.1-1.8.2zm2 52.8c.2-.1.3-.1.5-.2l20.9-12.1c.8-.5 1.2-1.3 1.2-2.2v-24.1c0-.6-.2-1.2-.6-1.6l-22 40.2z"/><path class="st3 st0" d="M175.7 192.4l-.3.1c-.8.5-1.4 1.3-1.4 2.2v24.1c0 .9.6 1.7 1.4 2.2l21 12.1c.6.3 1.2.4 1.8.3l-22.5-41zm45.3 2.3c0-.9-.5-1.7-1.2-2.2L199 180.4c-.2-.1-.3-.2-.5-.2l22.6 38.5v-24z"/><g><path id="path156" class="st0" d="M474.5 142.5c2.3 2.6 3 6.2 2.3 9.5-.7 3.7-2.8 7-5.2 9.8-1.9 2.3-4.2 4.3-6.5 6.2-2.7 2.2-5.4 4.5-7.1 7.6-1.4 2.5-1.8 5.6-.8 8.3 1.6 4.7 5.3 8.1 7.4 12.5-2.3-2-4.5-4.1-6.5-6.2-2.2-2.3-4.2-4.7-5.5-7.6-.9-2-1.3-4.4-.6-6.5.7-2.2 2.3-3.9 3.8-5.6 4.3-4.3 9.7-7.5 13.9-11.9 2.4-2.4 4.3-5.3 5-8.7.6-2.4.3-5-.2-7.4"/><path id="path158" class="st4" d="M474.5 142.5c2.3 2.6 3 6.2 2.3 9.5-.7 3.7-2.8 7-5.2 9.8-1.9 2.3-4.2 4.3-6.5 6.2-2.7 2.2-5.4 4.5-7.1 7.6-1.4 2.5-1.8 5.6-.8 8.3 1.6 4.7 5.3 8.1 7.4 12.5-2.3-2-4.5-4.1-6.5-6.2-2.2-2.3-4.2-4.7-5.5-7.6-.9-2-1.3-4.4-.6-6.5.7-2.2 2.3-3.9 3.8-5.6 4.3-4.3 9.7-7.5 13.9-11.9 2.4-2.4 4.3-5.3 5-8.7.6-2.4.3-5-.2-7.4z"/><path id="path160" class="st0" d="M471 169.8c4.7-3.4 10.1-5.6 15.6-7.2-4.4 2.8-8.9 5.3-12.7 8.9-1.4 1.3-2.7 2.8-3.3 4.7-.5 1.4-.3 2.9.3 4.2 1 2.3 2.7 4.2 4 6.3 1.1 1.8 1.3 4.1.5 6-1.3 2.9-3.8 4.9-6.4 6.6-.3.2-.6.6-1 .6 1.7-1.6 3.1-3.8 3-6.1 0-1.8-1-3.3-2.2-4.6-2.4-2.8-4.4-6.4-4-10.2.5-3.9 3.2-7 6.2-9.2"/><path id="path162" class="st4" d="M471 169.8c4.7-3.4 10.1-5.6 15.6-7.2-4.4 2.8-8.9 5.3-12.7 8.9-1.4 1.3-2.7 2.8-3.3 4.7-.5 1.4-.3 2.9.3 4.2 1 2.3 2.7 4.2 4 6.3 1.1 1.8 1.3 4.1.5 6-1.3 2.9-3.8 4.9-6.4 6.6-.3.2-.6.6-1 .6 1.7-1.6 3.1-3.8 3-6.1 0-1.8-1-3.3-2.2-4.6-2.4-2.8-4.4-6.4-4-10.2.5-3.9 3.2-7 6.2-9.2z"/><path id="path164" class="st0" d="M487.5 197.5c1-1.2 2.6-1.5 4.1-1.7 2.5-.3 5.3.3 7.2 2.1 1.6 1.4 2.5 3.6 2.1 5.8-.4 2.5-2 4.5-3.9 6.1-3.4 2.7-7.6 4.3-11.7 5.3.2-.3.5-.5.8-.7 3.2-1.7 6.3-3.7 8.6-6.5 1.4-1.7 2.5-4 2.1-6.3-.5-2.6-3-4.6-5.7-4.7-1.3-.1-2.4.4-3.6.6"/><path id="path166" class="st5" d="M487.5 197.5c1-1.2 2.6-1.5 4.1-1.7 2.5-.3 5.3.3 7.2 2.1 1.6 1.4 2.5 3.6 2.1 5.8-.4 2.5-2 4.5-3.9 6.1-3.4 2.7-7.6 4.3-11.7 5.3.2-.3.5-.5.8-.7 3.2-1.7 6.3-3.7 8.6-6.5 1.4-1.7 2.5-4 2.1-6.3-.5-2.6-3-4.6-5.7-4.7-1.3-.1-2.4.4-3.6.6z"/><path id="path168" class="st0" d="M439.3 199.7c4.4-1.9 9.2-3.1 14-3-2.8.8-5.7 1.5-8.3 2.8-.6.3-1.3.6-1.7 1.3-.2.5.3.8.7 1 1.6.7 3.4.8 5.2.9 6.1.4 12.3.2 18.4-.2 6-.4 12-1.2 18-2.2-1.3.6-2.7 1.2-3.9 2-.6.4-1.4.6-2.1.7-7.3 1.6-14.9 2.1-22.3 2.3-2.9 0-5.8 0-8.7-.2-3.2-.2-6.4-.5-9.6-1.3-.9-.3-1.9-.6-2.6-1.2-.4-.3-.4-.9 0-1.2.8-.8 1.9-1.2 2.9-1.7"/><path id="path170" class="st5" d="M439.3 199.7c4.4-1.9 9.2-3.1 14-3-2.8.8-5.7 1.5-8.3 2.8-.6.3-1.3.6-1.7 1.3-.2.5.3.8.7 1 1.6.7 3.4.8 5.2.9 6.1.4 12.3.2 18.4-.2 6-.4 12-1.2 18-2.2-1.3.6-2.7 1.2-3.9 2-.6.4-1.4.6-2.1.7-7.3 1.6-14.9 2.1-22.3 2.3-2.9 0-5.8 0-8.7-.2-3.2-.2-6.4-.5-9.6-1.3-.9-.3-1.9-.6-2.6-1.2-.4-.3-.4-.9 0-1.2.8-.8 1.9-1.2 2.9-1.7z"/><path id="path172" class="st0" d="M444.9 210c1.2-1 2.7-1.5 4.2-2.1-.5.6-1.2 1.1-1.2 1.9 0 .5.4.9.8 1.1.8.4 1.7.6 2.6.7 4.6.5 9.3.7 13.9.4 4.2-.2 8.5-.9 12.7-1.7 1.2 1.1 2.5 1.8 4 2.5-5.1 1.5-10.3 2.3-15.5 2.8-4.9.3-9.9.3-14.9-.5-1.9-.4-3.9-.8-5.7-1.7-.7-.4-1.5-.9-1.8-1.7-.1-.7.4-1.3.9-1.7"/><path id="path174" class="st5" d="M444.9 210c1.2-1 2.7-1.5 4.2-2.1-.5.6-1.2 1.1-1.2 1.9 0 .5.4.9.8 1.1.8.4 1.7.6 2.6.7 4.6.5 9.3.7 13.9.4 4.2-.2 8.5-.9 12.7-1.7 1.2 1.1 2.5 1.8 4 2.5-5.1 1.5-10.3 2.3-15.5 2.8-4.9.3-9.9.3-14.9-.5-1.9-.4-3.9-.8-5.7-1.7-.7-.4-1.5-.9-1.8-1.7-.1-.7.4-1.3.9-1.7z"/><path id="path176" class="st0" d="M447.7 220.4c1.1-.9 2.5-1.3 3.8-1.7-.4.4-1.2.9-.9 1.6.6.8 1.8.9 2.8 1.2 4.1.5 8.2.8 12.2.5 3.1-.2 6.1-.7 9.1-1.3 1.7 1 3.5 1.9 5.4 2.6-2.8 1.3-5.9 2.1-8.9 2.7-5.1.9-10.4 1-15.6.2-2.3-.4-4.6-.9-6.7-2.1-.8-.5-1.6-1-2-1.9-.2-.6.3-1.4.8-1.8"/><path id="path178" class="st5" d="M447.7 220.4c1.1-.9 2.5-1.3 3.8-1.7-.4.4-1.2.9-.9 1.6.6.8 1.8.9 2.8 1.2 4.1.5 8.2.8 12.2.5 3.1-.2 6.1-.7 9.1-1.3 1.7 1 3.5 1.9 5.4 2.6-2.8 1.3-5.9 2.1-8.9 2.7-5.1.9-10.4 1-15.6.2-2.3-.4-4.6-.9-6.7-2.1-.8-.5-1.6-1-2-1.9-.2-.6.3-1.4.8-1.8z"/><path id="path180" class="st0" d="M434.4 227.2c2.2-.7 4.5-1.3 6.8-1.4.9 0 1.9 0 2.7.5-2.8.2-5.6.9-8.1 2.1-.6.3-1.2.7-1.4 1.3 0 .7.8 1 1.4 1.2 3.5 1.3 7.2 1.7 10.8 2.1 10.9.9 21.8.7 32.7-.3 4.1-.5 8.2-.9 12.2-2 1.3-.4 2.7-.9 3.5-2 .5-.7.2-1.5-.3-2.1.8.5 2 1 1.8 2.1-.3 1.2-1.5 1.8-2.4 2.3-3.1 1.6-6.4 2.4-9.8 3-9.8 1.9-19.8 2.3-29.7 2.1-7.5-.3-15-1-22.3-2.3-1.3-.3-2.8-.6-3.8-1.6-.6-.7-.1-1.7.5-2.3 1.6-1.2 3.5-2 5.4-2.7"/><path id="path182" class="st5" d="M434.4 227.2c2.2-.7 4.5-1.3 6.8-1.4.9 0 1.9 0 2.7.5-2.8.2-5.6.9-8.1 2.1-.6.3-1.2.7-1.4 1.3 0 .7.8 1 1.4 1.2 3.5 1.3 7.2 1.7 10.8 2.1 10.9.9 21.8.7 32.7-.3 4.1-.5 8.2-.9 12.2-2 1.3-.4 2.7-.9 3.5-2 .5-.7.2-1.5-.3-2.1.8.5 2 1 1.8 2.1-.3 1.2-1.5 1.8-2.4 2.3-3.1 1.6-6.4 2.4-9.8 3-9.8 1.9-19.8 2.3-29.7 2.1-7.5-.3-15-1-22.3-2.3-1.3-.3-2.8-.6-3.8-1.6-.6-.7-.1-1.7.5-2.3 1.6-1.2 3.5-2 5.4-2.7z"/><path id="path184" class="st0" d="M494.2 235.4c2.4-.8 5-1.7 6.8-3.6-.3 2.1-2.1 3.5-3.9 4.5-3.4 1.8-7.2 2.6-11 3.3-8 1.3-16.1 1.6-24.3 1.4-5.5-.2-11.1-.4-16.6-1.5-1.3-.4-2.7-.6-3.8-1.4 4.8.8 9.8 1.2 14.7 1.3 8.1.2 16.2-.1 24.2-1.1 4.7-.7 9.3-1.5 13.9-2.9"/><path id="path186" class="st5" d="M494.2 235.4c2.4-.8 5-1.7 6.8-3.6-.3 2.1-2.1 3.5-3.9 4.5-3.4 1.8-7.2 2.6-11 3.3-8 1.3-16.1 1.6-24.3 1.4-5.5-.2-11.1-.4-16.6-1.5-1.3-.4-2.7-.6-3.8-1.4 4.8.8 9.8 1.2 14.7 1.3 8.1.2 16.2-.1 24.2-1.1 4.7-.7 9.3-1.5 13.9-2.9z"/></g><g><path class="st0" d="M583.8 20.2l-45.4 16 7.2 59.5 38.3 21.1 38.5-21.3 7.2-59.5-45.8-15.8zm34.6 72.4l-34.5 19.2-34.2-18.9-5.6-53.3L585 25.3l40.7 14.1-7.3 53.2z"/><path class="st0" d="M583.9 28.4h-.1l.1.2v-.2zm-28.2 62.5h10.4l5.6-13.9h12v-.2l13.2-.1L603 91l10.1.2-29.3-62.6-28.1 62.3zM584.1 68h-8.8l8.4-19.8 9.5 19.8h-9.1z"/></g></svg>